<svg width="512" height="512" viewBox="0 0 512 512" fill="none" xmlns="http://www.w3.org/2000/svg">
  <!-- Background circle -->
  <circle cx="256" cy="256" r="240" fill="url(#bgGradient)"/>
  
  <!-- Shield background -->
  <path d="M256 80L128 128V240C128 344 192 424 256 440C320 424 384 344 384 240V128L256 80Z" fill="url(#gradient1)" stroke="white" stroke-width="6"/>
  
  <!-- Inner shield detail -->
  <path d="M256 120L168 156V240C168 320 216 384 256 396C296 384 344 320 344 240V156L256 120Z" fill="url(#gradient2)"/>
  
  <!-- House/Home symbol -->
  <path d="M256 180L196 224V300H228V268H284V300H316V224L256 180Z" fill="white" stroke="#6B46C1" stroke-width="3" stroke-linejoin="round"/>
  
  <!-- Roof detail -->
  <path d="M256 180L316 224H196L256 180Z" fill="#E879F9" opacity="0.7"/>
  
  <!-- Door -->
  <rect x="240" y="268" width="32" height="32" rx="3" fill="#6B46C1"/>
  
  <!-- Windows -->
  <rect x="208" y="236" width="20" height="20" rx="2" fill="#38BDF8" opacity="0.9"/>
  <rect x="284" y="236" width="20" height="20" rx="2" fill="#38BDF8" opacity="0.9"/>
  
  <!-- Decorative elements -->
  <circle cx="256" cy="340" r="6" fill="#E879F9"/>
  <circle cx="240" cy="324" r="4" fill="#38BDF8" opacity="0.7"/>
  <circle cx="272" cy="324" r="4" fill="#38BDF8" opacity="0.7"/>
  
  <!-- Gradients -->
  <defs>
    <linearGradient id="bgGradient" x1="256" y1="16" x2="256" y2="496" gradientUnits="userSpaceOnUse">
      <stop offset="0%" stop-color="#F3E8FF"/>
      <stop offset="100%" stop-color="#E9D5FF"/>
    </linearGradient>
    <linearGradient id="gradient1" x1="256" y1="80" x2="256" y2="440" gradientUnits="userSpaceOnUse">
      <stop offset="0%" stop-color="#8B5CF6"/>
      <stop offset="50%" stop-color="#6B46C1"/>
      <stop offset="100%" stop-color="#5B21B6"/>
    </linearGradient>
    <linearGradient id="gradient2" x1="256" y1="120" x2="256" y2="396" gradientUnits="userSpaceOnUse">
      <stop offset="0%" stop-color="#A78BFA"/>
      <stop offset="100%" stop-color="#7C3AED"/>
    </linearGradient>
  </defs>
</svg>